<mxfile host="app.diagrams.net" modified="2021-03-24T00:23:50.101Z" agent="5.0 (Windows NT 10.0; Win64; x64) AppleWebKit/537.36 (KHTML, like Gecko) Chrome/89.0.4389.90 Safari/537.36" etag="1cE18nP1Coew7Z7VX1IC" version="14.5.1" type="github">
  <diagram id="3U_gRLvNuEe3_G76iVks" name="Page-1">
    <mxGraphModel dx="920" dy="1314" grid="1" gridSize="10" guides="1" tooltips="1" connect="1" arrows="1" fold="1" page="1" pageScale="1" pageWidth="850" pageHeight="1100" background="#ffffff" math="0" shadow="0">
      <root>
        <mxCell id="0" />
        <mxCell id="1" parent="0" />
        <mxCell id="JqO1CU3Tzo65FZROnML9-2" value="Event Interceptor Host" style="rounded=0;whiteSpace=wrap;html=1;dashed=1;strokeWidth=4;fillColor=none;labelPosition=right;verticalLabelPosition=middle;align=left;verticalAlign=middle;fontSize=16;strokeColor=#000000;fontColor=#000000;fontStyle=1;spacingLeft=5;" vertex="1" parent="1">
          <mxGeometry x="120" y="280" width="760" height="280" as="geometry" />
        </mxCell>
        <mxCell id="JqO1CU3Tzo65FZROnML9-1" value="" style="points=[[0,0,0],[0.25,0,0],[0.5,0,0],[0.75,0,0],[1,0,0],[0,1,0],[0.25,1,0],[0.5,1,0],[0.75,1,0],[1,1,0],[0,0.25,0],[0,0.5,0],[0,0.75,0],[1,0.25,0],[1,0.5,0],[1,0.75,0]];outlineConnect=0;fontColor=#232F3E;gradientColor=#F78E04;gradientDirection=north;fillColor=#D05C17;strokeColor=#ffffff;dashed=0;verticalLabelPosition=bottom;verticalAlign=top;align=center;html=1;fontSize=12;fontStyle=0;aspect=fixed;shape=mxgraph.aws4.resourceIcon;resIcon=mxgraph.aws4.ec2;" vertex="1" parent="1">
          <mxGeometry x="160" y="250" width="78" height="78" as="geometry" />
        </mxCell>
        <mxCell id="JqO1CU3Tzo65FZROnML9-28" style="rounded=0;orthogonalLoop=1;jettySize=auto;html=1;exitX=0.5;exitY=1;exitDx=0;exitDy=0;fontSize=16;entryX=0.9;entryY=0.5;entryDx=0;entryDy=0;entryPerimeter=0;strokeColor=#000000;" edge="1" parent="1" source="JqO1CU3Tzo65FZROnML9-3" target="JqO1CU3Tzo65FZROnML9-13">
          <mxGeometry relative="1" as="geometry" />
        </mxCell>
        <mxCell id="JqO1CU3Tzo65FZROnML9-29" style="edgeStyle=none;rounded=0;orthogonalLoop=1;jettySize=auto;html=1;exitX=0.5;exitY=1;exitDx=0;exitDy=0;fontSize=16;strokeColor=#000000;" edge="1" parent="1" source="JqO1CU3Tzo65FZROnML9-3" target="JqO1CU3Tzo65FZROnML9-17">
          <mxGeometry relative="1" as="geometry" />
        </mxCell>
        <mxCell id="JqO1CU3Tzo65FZROnML9-31" style="edgeStyle=none;rounded=0;orthogonalLoop=1;jettySize=auto;html=1;exitX=0.5;exitY=1;exitDx=0;exitDy=0;entryX=0.1;entryY=0.5;entryDx=0;entryDy=0;entryPerimeter=0;fontSize=16;strokeColor=#000000;" edge="1" parent="1" source="JqO1CU3Tzo65FZROnML9-3" target="JqO1CU3Tzo65FZROnML9-19">
          <mxGeometry relative="1" as="geometry" />
        </mxCell>
        <mxCell id="JqO1CU3Tzo65FZROnML9-32" style="edgeStyle=none;rounded=0;orthogonalLoop=1;jettySize=auto;html=1;exitX=0.5;exitY=1;exitDx=0;exitDy=0;entryX=0.1;entryY=0.5;entryDx=0;entryDy=0;entryPerimeter=0;fontSize=16;strokeColor=#000000;" edge="1" parent="1" source="JqO1CU3Tzo65FZROnML9-3" target="JqO1CU3Tzo65FZROnML9-25">
          <mxGeometry relative="1" as="geometry" />
        </mxCell>
        <mxCell id="JqO1CU3Tzo65FZROnML9-3" value="" style="shape=image;verticalLabelPosition=bottom;labelBackgroundColor=#ffffff;verticalAlign=top;aspect=fixed;imageAspect=0;image=https://upload.wikimedia.org/wikipedia/commons/thumb/c/ce/Twitch_logo_2019.svg/512px-Twitch_logo_2019.svg.png;" vertex="1" parent="1">
          <mxGeometry x="399" y="170" width="202" height="67.46" as="geometry" />
        </mxCell>
        <mxCell id="JqO1CU3Tzo65FZROnML9-33" style="edgeStyle=none;rounded=0;orthogonalLoop=1;jettySize=auto;html=1;exitX=0.5;exitY=1;exitDx=0;exitDy=0;entryX=0.5;entryY=0;entryDx=0;entryDy=0;fontSize=16;strokeColor=#000000;" edge="1" parent="1" source="JqO1CU3Tzo65FZROnML9-4" target="JqO1CU3Tzo65FZROnML9-6">
          <mxGeometry relative="1" as="geometry" />
        </mxCell>
        <mxCell id="JqO1CU3Tzo65FZROnML9-4" value="&lt;font style=&quot;font-size: 16px&quot;&gt;WebSocket Client&lt;/font&gt;" style="rounded=0;whiteSpace=wrap;html=1;strokeWidth=2;fontSize=16;fillColor=none;strokeColor=#000000;" vertex="1" parent="1">
          <mxGeometry x="160" y="400" width="120" height="60" as="geometry" />
        </mxCell>
        <mxCell id="JqO1CU3Tzo65FZROnML9-6" value="Spotify queueing lambda" style="rounded=0;whiteSpace=wrap;html=1;dashed=1;strokeWidth=4;fontSize=16;fillColor=none;labelPosition=right;verticalLabelPosition=middle;align=left;verticalAlign=middle;spacingRight=0;spacingLeft=5;strokeColor=#000000;fontColor=#000000;" vertex="1" parent="1">
          <mxGeometry x="417.5" y="640" width="165" height="160" as="geometry" />
        </mxCell>
        <mxCell id="JqO1CU3Tzo65FZROnML9-7" value="" style="points=[[0,0,0],[0.25,0,0],[0.5,0,0],[0.75,0,0],[1,0,0],[0,1,0],[0.25,1,0],[0.5,1,0],[0.75,1,0],[1,1,0],[0,0.25,0],[0,0.5,0],[0,0.75,0],[1,0.25,0],[1,0.5,0],[1,0.75,0]];outlineConnect=0;fontColor=#232F3E;gradientColor=#F78E04;gradientDirection=north;fillColor=#D05C17;strokeColor=#ffffff;dashed=0;verticalLabelPosition=bottom;verticalAlign=top;align=center;html=1;fontSize=12;fontStyle=0;aspect=fixed;shape=mxgraph.aws4.resourceIcon;resIcon=mxgraph.aws4.lambda;" vertex="1" parent="1">
          <mxGeometry x="421" y="641" width="78" height="78" as="geometry" />
        </mxCell>
        <mxCell id="JqO1CU3Tzo65FZROnML9-8" value="" style="points=[[0,0,0],[0.25,0,0],[0.5,0,0],[0.75,0,0],[1,0,0],[0,1,0],[0.25,1,0],[0.5,1,0],[0.75,1,0],[1,1,0],[0,0.25,0],[0,0.5,0],[0,0.75,0],[1,0.25,0],[1,0.5,0],[1,0.75,0]];outlineConnect=0;fontColor=#232F3E;gradientColor=#F78E04;gradientDirection=north;fillColor=#D05C17;strokeColor=#ffffff;dashed=0;verticalLabelPosition=bottom;verticalAlign=top;align=center;html=1;fontSize=12;fontStyle=0;aspect=fixed;shape=mxgraph.aws4.resourceIcon;resIcon=mxgraph.aws4.lambda;" vertex="1" parent="1">
          <mxGeometry x="499" y="719" width="78" height="78" as="geometry" />
        </mxCell>
        <mxCell id="JqO1CU3Tzo65FZROnML9-9" value="" style="points=[[0,0,0],[0.25,0,0],[0.5,0,0],[0.75,0,0],[1,0,0],[0,1,0],[0.25,1,0],[0.5,1,0],[0.75,1,0],[1,1,0],[0,0.25,0],[0,0.5,0],[0,0.75,0],[1,0.25,0],[1,0.5,0],[1,0.75,0]];outlineConnect=0;fontColor=#232F3E;gradientColor=#F78E04;gradientDirection=north;fillColor=#D05C17;strokeColor=#ffffff;dashed=0;verticalLabelPosition=bottom;verticalAlign=top;align=center;html=1;fontSize=12;fontStyle=0;aspect=fixed;shape=mxgraph.aws4.resourceIcon;resIcon=mxgraph.aws4.lambda;" vertex="1" parent="1">
          <mxGeometry x="421" y="719" width="78" height="78" as="geometry" />
        </mxCell>
        <mxCell id="JqO1CU3Tzo65FZROnML9-10" value="" style="points=[[0,0,0],[0.25,0,0],[0.5,0,0],[0.75,0,0],[1,0,0],[0,1,0],[0.25,1,0],[0.5,1,0],[0.75,1,0],[1,1,0],[0,0.25,0],[0,0.5,0],[0,0.75,0],[1,0.25,0],[1,0.5,0],[1,0.75,0]];outlineConnect=0;fontColor=#232F3E;gradientColor=#F78E04;gradientDirection=north;fillColor=#D05C17;strokeColor=#ffffff;dashed=0;verticalLabelPosition=bottom;verticalAlign=top;align=center;html=1;fontSize=12;fontStyle=0;aspect=fixed;shape=mxgraph.aws4.resourceIcon;resIcon=mxgraph.aws4.lambda;" vertex="1" parent="1">
          <mxGeometry x="499" y="641" width="78" height="78" as="geometry" />
        </mxCell>
        <mxCell id="JqO1CU3Tzo65FZROnML9-5" value="" style="shape=actor;whiteSpace=wrap;html=1;strokeWidth=2;fontSize=16;fillColor=#696969;strokeColor=#000000;" vertex="1" parent="1">
          <mxGeometry x="260" y="350" width="40" height="60" as="geometry" />
        </mxCell>
        <mxCell id="JqO1CU3Tzo65FZROnML9-12" value="" style="shape=actor;whiteSpace=wrap;html=1;strokeWidth=2;fontSize=16;fillColor=#696969;strokeColor=#000000;" vertex="1" parent="1">
          <mxGeometry x="270" y="360" width="40" height="60" as="geometry" />
        </mxCell>
        <mxCell id="JqO1CU3Tzo65FZROnML9-13" value="" style="shape=actor;whiteSpace=wrap;html=1;strokeWidth=2;fontSize=16;fillColor=#696969;strokeColor=#000000;" vertex="1" parent="1">
          <mxGeometry x="280" y="370" width="40" height="60" as="geometry" />
        </mxCell>
        <mxCell id="JqO1CU3Tzo65FZROnML9-34" style="edgeStyle=none;rounded=0;orthogonalLoop=1;jettySize=auto;html=1;exitX=0.5;exitY=1;exitDx=0;exitDy=0;fontSize=16;strokeColor=#000000;" edge="1" parent="1" source="JqO1CU3Tzo65FZROnML9-14">
          <mxGeometry relative="1" as="geometry">
            <mxPoint x="500" y="640" as="targetPoint" />
          </mxGeometry>
        </mxCell>
        <mxCell id="JqO1CU3Tzo65FZROnML9-14" value="&lt;font style=&quot;font-size: 16px&quot;&gt;WebSocket Client&lt;/font&gt;" style="rounded=0;whiteSpace=wrap;html=1;strokeWidth=2;fontSize=16;fillColor=none;strokeColor=#000000;" vertex="1" parent="1">
          <mxGeometry x="340" y="400" width="120" height="60" as="geometry" />
        </mxCell>
        <mxCell id="JqO1CU3Tzo65FZROnML9-15" value="" style="shape=actor;whiteSpace=wrap;html=1;strokeWidth=2;fontSize=16;fillColor=#696969;strokeColor=#000000;" vertex="1" parent="1">
          <mxGeometry x="440" y="350" width="40" height="60" as="geometry" />
        </mxCell>
        <mxCell id="JqO1CU3Tzo65FZROnML9-16" value="" style="shape=actor;whiteSpace=wrap;html=1;strokeWidth=2;fontSize=16;fillColor=#696969;strokeColor=#000000;" vertex="1" parent="1">
          <mxGeometry x="450" y="360" width="40" height="60" as="geometry" />
        </mxCell>
        <mxCell id="JqO1CU3Tzo65FZROnML9-17" value="" style="shape=actor;whiteSpace=wrap;html=1;strokeWidth=2;fontSize=16;fillColor=#696969;strokeColor=#000000;" vertex="1" parent="1">
          <mxGeometry x="460" y="370" width="40" height="60" as="geometry" />
        </mxCell>
        <mxCell id="JqO1CU3Tzo65FZROnML9-35" style="edgeStyle=none;rounded=0;orthogonalLoop=1;jettySize=auto;html=1;exitX=0.5;exitY=1;exitDx=0;exitDy=0;fontSize=16;strokeColor=#000000;" edge="1" parent="1" source="JqO1CU3Tzo65FZROnML9-18">
          <mxGeometry relative="1" as="geometry">
            <mxPoint x="500" y="640" as="targetPoint" />
          </mxGeometry>
        </mxCell>
        <mxCell id="JqO1CU3Tzo65FZROnML9-18" value="&lt;font style=&quot;font-size: 16px&quot;&gt;WebSocket Client&lt;/font&gt;" style="rounded=0;whiteSpace=wrap;html=1;strokeWidth=2;fontSize=16;fillColor=none;strokeColor=#000000;" vertex="1" parent="1">
          <mxGeometry x="520" y="400" width="120" height="60" as="geometry" />
        </mxCell>
        <mxCell id="JqO1CU3Tzo65FZROnML9-19" value="" style="shape=actor;whiteSpace=wrap;html=1;strokeWidth=2;fontSize=16;fillColor=#696969;strokeColor=#000000;" vertex="1" parent="1">
          <mxGeometry x="620" y="350" width="40" height="60" as="geometry" />
        </mxCell>
        <mxCell id="JqO1CU3Tzo65FZROnML9-20" value="" style="shape=actor;whiteSpace=wrap;html=1;strokeWidth=2;fontSize=16;fillColor=#696969;strokeColor=#000000;" vertex="1" parent="1">
          <mxGeometry x="633" y="360" width="34" height="60" as="geometry" />
        </mxCell>
        <mxCell id="JqO1CU3Tzo65FZROnML9-21" value="" style="shape=actor;whiteSpace=wrap;html=1;strokeWidth=2;fontSize=16;fillColor=#696969;strokeColor=#000000;" vertex="1" parent="1">
          <mxGeometry x="640" y="370" width="40" height="60" as="geometry" />
        </mxCell>
        <mxCell id="JqO1CU3Tzo65FZROnML9-36" style="edgeStyle=none;rounded=0;orthogonalLoop=1;jettySize=auto;html=1;exitX=0.5;exitY=1;exitDx=0;exitDy=0;entryX=0.5;entryY=0;entryDx=0;entryDy=0;fontSize=16;strokeColor=#000000;" edge="1" parent="1" source="JqO1CU3Tzo65FZROnML9-24" target="JqO1CU3Tzo65FZROnML9-6">
          <mxGeometry relative="1" as="geometry" />
        </mxCell>
        <mxCell id="JqO1CU3Tzo65FZROnML9-24" value="&lt;font style=&quot;font-size: 16px&quot;&gt;WebSocket Client&lt;/font&gt;" style="rounded=0;whiteSpace=wrap;html=1;strokeWidth=2;fontSize=16;fillColor=none;strokeColor=#000000;" vertex="1" parent="1">
          <mxGeometry x="700" y="400" width="120" height="60" as="geometry" />
        </mxCell>
        <mxCell id="JqO1CU3Tzo65FZROnML9-25" value="" style="shape=actor;whiteSpace=wrap;html=1;strokeWidth=2;fontSize=16;fillColor=#696969;strokeColor=#000000;" vertex="1" parent="1">
          <mxGeometry x="800" y="350" width="40" height="60" as="geometry" />
        </mxCell>
        <mxCell id="JqO1CU3Tzo65FZROnML9-26" value="" style="shape=actor;whiteSpace=wrap;html=1;strokeWidth=2;fontSize=16;fillColor=#696969;strokeColor=#000000;" vertex="1" parent="1">
          <mxGeometry x="813" y="360" width="34" height="60" as="geometry" />
        </mxCell>
        <mxCell id="JqO1CU3Tzo65FZROnML9-27" value="" style="shape=actor;whiteSpace=wrap;html=1;strokeWidth=2;fontSize=16;fillColor=#696969;strokeColor=#000000;" vertex="1" parent="1">
          <mxGeometry x="820" y="370" width="40" height="60" as="geometry" />
        </mxCell>
        <mxCell id="JqO1CU3Tzo65FZROnML9-37" value="&lt;font style=&quot;font-size: 18px;&quot;&gt;WebSocket Client&lt;/font&gt;" style="rounded=0;whiteSpace=wrap;html=1;strokeWidth=2;fontSize=18;strokeColor=#000000;fontColor=#000000;fillColor=#B3B3B3;fontStyle=1" vertex="1" parent="1">
          <mxGeometry x="520" y="400" width="120" height="60" as="geometry" />
        </mxCell>
        <mxCell id="JqO1CU3Tzo65FZROnML9-38" value="&lt;font style=&quot;font-size: 18px;&quot;&gt;WebSocket Client&lt;/font&gt;" style="rounded=0;whiteSpace=wrap;html=1;strokeWidth=2;fontSize=18;strokeColor=#000000;fontColor=#000000;fillColor=#B3B3B3;fontStyle=1" vertex="1" parent="1">
          <mxGeometry x="700" y="400" width="120" height="60" as="geometry" />
        </mxCell>
        <mxCell id="JqO1CU3Tzo65FZROnML9-39" value="&lt;font style=&quot;font-size: 18px;&quot;&gt;WebSocket Client&lt;/font&gt;" style="rounded=0;whiteSpace=wrap;html=1;strokeWidth=2;fontSize=18;strokeColor=#000000;fontColor=#000000;fillColor=#B3B3B3;fontStyle=1" vertex="1" parent="1">
          <mxGeometry x="340" y="400" width="120" height="60" as="geometry" />
        </mxCell>
        <mxCell id="JqO1CU3Tzo65FZROnML9-40" value="&lt;font style=&quot;font-size: 18px;&quot;&gt;WebSocket Client&lt;/font&gt;" style="rounded=0;whiteSpace=wrap;html=1;strokeWidth=2;fontSize=18;strokeColor=#000000;fontColor=#000000;fillColor=#B3B3B3;fontStyle=1" vertex="1" parent="1">
          <mxGeometry x="160" y="400" width="120" height="60" as="geometry" />
        </mxCell>
      </root>
    </mxGraphModel>
  </diagram>
</mxfile>
